# File created by Blade
# Date/Time:  Mon Nov 18 18:33:23 2013
# Frame Rate: 100.000 fps
#------------------------------------------------------
:FULLY-SPECIFIED
:DEGREES
113
root 54.337348 -1.952116 50.863066 -2.472369 3.310634 -121.770365
Spine 11.291661 -1.558062 -0.911438
Spine1 2.913875 1.026997 -2.389745
Spine2 0.579422 -2.485756 -2.415882
NeckDummy 0.004896 -0.017576 -0.017164 -1.378983 2.006245 -0.813652
Neck 16.972811 0.588450 26.005514
Head -0.251907 0.355990 0.274834 -35.943891 -3.725228 -0.319473
LeftShoulderDummy -0.066622 -0.010151 0.020282 -1.357244 1.890165 -0.608283
LeftShoulder 8.040901 -4.417560 13.981929
LeftArm 15.762482 46.939999 26.649379
LeftForeArm 88.151995
LeftForeArmRoll -34.432140
LeftHand -9.173556 3.758464 -3.510567
LeftHandThumb1 15.942155 13.155936
LeftHandIndex1 15.393208 42.929436
LeftHandPinky1 14.669392 47.843540
RightShoulderDummy -0.049564 0.018496 0.078063 -1.399332 -2.000458 0.784942
RightShoulder 5.550593 5.256781 17.712161
RightArm -43.472367 70.088594 -8.238819
RightForeArm 112.611082
RightForeArmRoll 5.372908
RightHand -17.839751 -16.954471 11.703855
RightHandThumb1 -0.958809 12.968360
RightHandIndex1 13.821821 59.851160
RightHandPinky1 18.471197 68.490547
LeftUpLeg 6.424648 19.269666 -27.798931
LeftLeg 42.987736
LeftFoot 0.535767 -1.018187 -0.558921 -14.285177 8.039596 -6.338488
LeftToeBase -2.516509
RightUpLeg 15.624004 12.978339 -21.459163
RightLeg 56.305216
RightFoot -0.359742 0.430502 0.237026 0.118892 6.050506 -29.819779
RightToeBase -1.109365
114
root 54.308762 -1.961669 50.859485 -2.472916 3.191572 -121.740963
Spine 11.303079 -1.573598 -0.864490
Spine1 2.921406 1.016795 -2.280359
Spine2 0.599338 -2.412902 -2.413048
NeckDummy 0.005027 -0.017416 -0.018037 -1.389220 1.998040 -0.798739
Neck 16.990128 0.606230 25.848662
Head -0.251070 0.353656 0.272047 -35.867543 -3.713459 -0.319793
LeftShoulderDummy -0.066258 -0.009787 0.020108 -1.367084 1.881291 -0.591401
LeftShoulder 7.999648 -4.411048 13.958146
LeftArm 15.752640 47.111964 26.710317
LeftForeArm 88.137037
LeftForeArmRoll -34.547786
LeftHand -9.179361 3.923106 -3.450784
LeftHandThumb1 15.834242 13.051399
LeftHandIndex1 15.540611 42.816062
LeftHandPinky1 14.631918 47.637962
RightShoulderDummy -0.049302 0.018425 0.077284 -1.409817 -1.991274 0.768471
RightShoulder 5.551420 5.243135 17.763766
RightArm -43.205072 70.012182 -8.038165
RightForeArm 112.628618
RightForeArmRoll 5.116883
RightHand -17.753012 -16.758613 11.406843
RightHandThumb1 -1.357091 12.982497
RightHandIndex1 14.071577 59.218225
RightHandPinky1 18.863528 68.017151
LeftUpLeg 6.242318 19.307710 -27.832839
LeftLeg 43.088927
LeftFoot 0.538236 -1.014592 -0.559363 -14.294983 8.135227 -6.503611
LeftToeBase -2.437799
RightUpLeg 15.588368 12.832068 -21.407600
RightLeg 56.322597
RightFoot -0.363818 0.428262 0.231452 0.111706 6.174691 -29.898856
RightToeBase -1.166637
115
root 54.282167 -1.968683 50.860509 -2.442346 3.129052 -121.808498
Spine 11.301318 -1.598451 -0.827561
Spine1 2.904573 0.987927 -2.193540
Spine2 0.623166 -2.437335 -2.341164
NeckDummy 0.004795 -0.016073 -0.018870 -1.406959 1.947551 -0.803835
Neck 16.975028 0.683672 25.779948
Head -0.248931 0.349736 0.270637 -35.788929 -3.698935 -0.295870
LeftShoulderDummy -0.066123 -0.008302 0.021248 -1.384125 1.830810 -0.598339
LeftShoulder 8.073876 -4.390766 14.034916
LeftArm 15.842339 47.151881 26.834167
LeftForeArm 88.167298
LeftForeArmRoll -34.521403
LeftHand -9.187199 3.959413 -3.492431
LeftHandThumb1 15.963623 13.117729
LeftHandIndex1 15.503762 42.969098
LeftHandPinky1 14.553166 47.537324
RightShoulderDummy -0.049610 0.019802 0.076193 -1.427347 -1.941009 0.773987
RightShoulder 5.560158 5.160398 17.735895
RightArm -43.005023 70.002247 -7.921588
RightForeArm 112.590320
RightForeArmRoll 5.006319
RightHand -17.664935 -16.845707 11.561431
RightHandThumb1 -0.893968 12.976061
RightHandIndex1 13.882416 59.473311
RightHandPinky1 18.676483 68.194046
LeftUpLeg 6.082911 19.320747 -27.853479
LeftLeg 43.209245
LeftFoot 0.531200 -1.011828 -0.550178 -14.408488 8.324345 -6.646621
LeftToeBase -2.254551
RightUpLeg 15.414877 12.683024 -21.441769
RightLeg 56.358750
RightFoot -0.376519 0.427053 0.228487 0.122883 6.326147 -29.971492
RightToeBase -0.978609
116
root 54.254138 -1.975669 50.853358 -2.456230 2.991309 -121.815680
Spine 11.323725 -1.590845 -0.789903
Spine1 2.919667 0.998948 -2.106974
Spine2 0.619429 -2.408817 -2.328881
NeckDummy 0.004732 -0.017707 -0.018775 -1.402376 1.936617 -0.793054
Neck 16.980472 0.705345 25.684853
Head -0.247284 0.348059 0.269175 -35.749472 -3.682769 -0.283141
LeftShoulderDummy -0.065986 -0.009843 0.021421 -1.379341 1.819557 -0.586436
LeftShoulder 8.107191 -4.414355 14.051758
LeftArm 15.871867 47.194214 26.901592
LeftForeArm 88.125888
LeftForeArmRoll -34.642801
LeftHand -9.137690 3.903331 -3.413151
LeftHandThumb1 15.836490 13.267882
LeftHandIndex1 15.646024 43.073462
LeftHandPinky1 14.725529 47.643092
RightShoulderDummy -0.049331 0.017886 0.075883 -1.422678 -1.929887 0.762965
RightShoulder 5.572123 5.160155 17.748783
RightArm -42.711306 69.973809 -7.694047
RightForeArm 112.563900
RightForeArmRoll 5.074909
RightHand -17.729905 -16.638106 11.605010
RightHandThumb1 -1.133578 13.055777
RightHandIndex1 13.786983 59.407132
RightHandPinky1 18.457984 67.666201
LeftUpLeg 5.912780 19.403747 -27.886279
LeftLeg 43.276536
LeftFoot 0.556298 -1.006193 -0.575633 -14.993486 8.429085 -6.786316
LeftToeBase -1.515579
RightUpLeg 15.330845 12.493413 -21.382166
RightLeg 56.379873
RightFoot -0.375192 0.426532 0.221535 0.149937 6.465027 -30.042563
RightToeBase -1.031533
